<?xml version="1.0" standalone="no"?>
<!DOCTYPE svg PUBLIC "-//W3C//DTD SVG 20010904//EN"
 "http://www.w3.org/TR/2001/REC-SVG-20010904/DTD/svg10.dtd">
<svg version="1.0" xmlns="http://www.w3.org/2000/svg"
 width="700.000000pt" height="700.000000pt" viewBox="0 0 700.000000 700.000000"
 preserveAspectRatio="xMidYMid meet">
<metadata>
Created for Hifaliz pinned tab icon.
</metadata>
<g transform="translate(0.000000,700.000000) scale(0.100000,-0.100000)"
fill="#000000" stroke="none">
<path d="M3280 6989 c-1046 -80 -1994 -661 -2563 -1569 -583 -931 -667 -2094
-225 -3095 401 -901 1184 -1602 2128 -1860 335 -92 585 -120 975 -112 273 6
429 24 665 78 1018 227 1883 926 2325 1884 163 347 260 693 306 1095 17 148
17 602 0 750 -63 539 -236 1030 -527 1495 -600 962 -1625 1587 -2754 1690 -170
15 -471 18 -630 4z"/>
<path d="M3450 5200 c-349 -23 -633 -163 -821 -404 -163 -209 -241 -468 -256
-842 l-6 -161 352 -6 c193 -4 353 -5 355 -3 2 2 7 75 11 162 12 298 67 470
178 558 94 75 223 96 355 58 178 -52 300 -239 373 -573 40 -185 49 -347 49
-854 l0 -470 -22 42 c-81 156 -222 260 -416 304 -118 26 -332 23 -466 -6 -390
-85 -662 -335 -766 -709 -29 -104 -39 -345 -21 -479 75 -567 428 -946 927
-996 335 -33 617 82 827 340 23 29 44 51 47 49 2 -3 5 -30 6 -61 l1 -55 347 0
348 0 0 1793 c0 1962 3 1837 -57 2017 -119 355 -361 562 -758 648 -143 31
-416 49 -557 37z m495 -3300 c124 -29 241 -125 302 -245 59 -115 76 -191 76
-330 -1 -249 -94 -429 -275 -523 -234 -121 -508 -50 -646 168 -69 108 -96 206
-100 352 -8 271 86 459 280 556 120 60 233 64 363 22z"/>
</g>
</svg>
